<svg width="96" height="96" xmlns="http://www.w3.org/2000/svg" xmlns:xlink="http://www.w3.org/1999/xlink" overflow="hidden"><defs><clipPath id="clip0"><rect x="60" y="46" width="96" height="96"/></clipPath></defs><g clip-path="url(#clip0)" transform="translate(-60 -46)"><path d="M86 98C86 85.9 95.9 76 108 76 120.1 76 130 85.9 130 98 130 110.1 120.1 120 108 120 95.9 120 86 110.1 86 98ZM110 70.1 110 66 114 66C115.1 66 116 65.1 116 64 116 62.9 115.1 62 114 62L102 62C100.9 62 100 62.9 100 64 100 65.1 100.9 66 102 66L106 66 106 70.1C91.5 71.1 80 83.2 80 98 80 105.6 83 112.5 88 117.6L84.2 125.1C83.7 126.1 84.1 127.3 85.1 127.8 85.4 127.9 85.7 128 86 128 86.7 128 87.4 127.6 87.8 126.9L91.1 120.3C95.8 123.9 101.6 126 108 126 114.4 126 120.2 123.9 124.9 120.3L128.2 126.9C128.6 127.6 129.3 128 130 128 130.3 128 130.6 127.9 130.9 127.8 131.9 127.3 132.3 126.1 131.8 125.1L128 117.6C132.9 112.6 136 105.6 136 98 136 83.2 124.5 71.1 110 70.1Z" fill="#F06A1D"/><path d="M106 96 92 96 92 100 108 100C109.1 100 110 99.1 110 98L110 82 106 82 106 96Z" fill="#F06A1D"/><path d="M140.2 70.2 131.9 61.9C130.3 60.3 127.8 60.3 126.2 61.9L121 67 135 81 140.2 75.8C141.7 74.3 141.7 71.7 140.2 70.2Z" fill="#F06A1D"/><path d="M95 67 89.8 61.8C88.2 60.2 85.7 60.2 84.1 61.8L75.8 70.1C74.2 71.7 74.2 74.2 75.8 75.8L81 81 95 67Z" fill="#F06A1D"/></g></svg>