<svg width="96" height="96" xmlns="http://www.w3.org/2000/svg" xmlns:xlink="http://www.w3.org/1999/xlink" overflow="hidden"><defs><clipPath id="clip0"><rect x="388" y="39" width="96" height="96"/></clipPath></defs><g clip-path="url(#clip0)" transform="translate(-388 -39)"><path d="M464 71 464 79 456 79 456 71 464 71ZM408 107 416 107 416 115 408 115 408 107ZM428 71 428 79 420 79 420 71 428 71ZM440 71 440 79 432 79 432 71 440 71ZM452 91 444 91 444 83 452 83 452 91ZM456 91 456 83 464 83 464 91 456 91ZM456 103 456 95 464 95 464 103 456 103ZM432 107 440 107 440 115 432 115 432 107ZM428 107 428 115 420 115 420 107 428 107ZM420 95 428 95 428 103 420 103 420 95ZM416 95 416 103 408 103 408 95 416 95ZM416 83 416 91 408 91 408 83 416 83ZM428 91 420 91 420 83 428 83 428 91ZM432 91 432 83 440 83 440 91 432 91ZM440 103 432 103 432 95 440 95 440 103ZM444 103 444 95 452 95 452 103 444 103ZM452 71 452 79 444 79 444 71 452 71ZM402 65 402 121 470 121 470 65 402 65Z" fill="#F06A1D"/><path d="M402 53 470 53 470 61 402 61Z" fill="#F06A1D"/></g></svg>