<svg width="96" height="96" xmlns="http://www.w3.org/2000/svg" xmlns:xlink="http://www.w3.org/1999/xlink" overflow="hidden"><defs><clipPath id="clip0"><rect x="60" y="174" width="96" height="96"/></clipPath></defs><g clip-path="url(#clip0)" transform="translate(-60 -174)"><path d="M108 260.3C101.5 260.3 95.8 255.7 94.4 249.4 92.9 243 96.1 236.5 102 233.7L102 189.7C102 186.4 104.7 183.7 108 183.7 111.3 183.7 114 186.4 114 189.7L114 233.7C119.9 236.5 123 243 121.6 249.4 120.1 255.7 114.5 260.2 108 260.3L108 260.3ZM120 230.3 120 189.7C120 183.1 114.6 177.7 108 177.7 101.4 177.7 96 183 96 189.7L96 230.3C89.1 235.5 86.3 244.5 89 252.6 91.7 260.8 99.4 266.3 108 266.3 116.6 266.3 124.3 260.8 127 252.6 129.7 244.5 126.9 235.5 120 230.3Z" fill="#F06A1D"/><path d="M110 236.5 110 212.3 106 212.3 106 236.5C101 237.5 97.5 242.2 98.1 247.3 98.6 252.4 102.9 256.3 108 256.3 113.1 256.3 117.4 252.4 117.9 247.3 118.5 242.2 115 237.5 110 236.5Z" fill="#F06A1D"/></g></svg>