<svg width="96" height="96" xmlns="http://www.w3.org/2000/svg" xmlns:xlink="http://www.w3.org/1999/xlink" overflow="hidden"><defs><clipPath id="clip0"><rect x="391" y="175" width="96" height="96"/></clipPath></defs><g clip-path="url(#clip0)" transform="translate(-391 -175)"><path d="M418.668 189.842C418.668 193.667 415.569 196.767 411.747 196.767 407.925 196.767 404.826 193.667 404.826 189.842 404.826 186.018 407.925 182.917 411.747 182.917 415.569 182.917 418.668 186.018 418.668 189.842Z" fill="#F06A1D"/><path d="M398.597 205.749 393.11 226.573C392.696 228.157 393.643 229.777 395.226 230.194 395.471 230.261 395.724 230.294 395.977 230.293 397.341 230.316 398.545 229.405 398.894 228.087L403.818 209.267C403.819 209.262 403.825 209.259 403.83 209.26 403.834 209.261 403.837 209.265 403.837 209.27L403.837 262.058 409.77 262.058 409.77 231.391 413.724 231.391 413.724 262.058 419.657 262.058 419.657 209.27C419.657 209.264 419.661 209.26 419.667 209.26 419.671 209.26 419.675 209.263 419.676 209.267L424.6 228.087C424.954 229.424 426.184 230.339 427.566 230.293 427.82 230.294 428.073 230.261 428.318 230.194 429.881 229.755 430.802 228.142 430.384 226.573L424.887 205.749C424.7 205.122 424.36 204.551 423.898 204.088 422.006 202.115 419.671 200.623 417.086 199.735 415.389 199.056 413.575 198.719 411.747 198.746 409.93 198.735 408.124 199.037 406.408 199.636 403.808 200.499 401.464 201.994 399.586 203.989 399.145 204.506 398.809 205.104 398.597 205.749Z" fill="#F06A1D"/><path d="M473.081 189.842C473.081 193.667 469.982 196.767 466.16 196.767 462.337 196.767 459.239 193.667 459.239 189.842 459.239 186.018 462.337 182.917 466.16 182.917 469.982 182.917 473.081 186.018 473.081 189.842Z" fill="#F06A1D"/><path d="M464.182 238.316 464.182 262.058 458.25 262.058 458.25 238.316 453.148 238.316 458.25 219.233 458.25 209.27C458.25 209.264 458.245 209.26 458.24 209.26 458.236 209.26 458.232 209.263 458.23 209.267L453.306 228.087C452.953 229.424 451.723 230.339 450.341 230.293 450.087 230.294 449.834 230.261 449.589 230.194 448.026 229.755 447.105 228.142 447.523 226.573L453.02 205.749C453.217 205.127 453.555 204.558 454.008 204.088 455.901 202.115 458.236 200.623 460.821 199.735 464.258 198.416 468.061 198.416 471.498 199.735 474.083 200.623 476.419 202.115 478.311 204.088 478.764 204.558 479.102 205.127 479.299 205.749L484.797 226.573C485.214 228.142 484.293 229.755 482.73 230.194 482.485 230.261 482.232 230.294 481.979 230.293 480.597 230.339 479.366 229.424 479.013 228.087L474.089 209.267C474.087 209.262 474.082 209.259 474.077 209.26 474.072 209.261 474.069 209.265 474.069 209.27L474.069 219.233 479.171 238.316 474.069 238.316 474.069 262.058 468.137 262.058 468.137 238.316Z" fill="#F06A1D"/><path d="M430.934 187.943 423.874 195.003 430.934 202.064 433.056 199.943 429.616 196.503 448.374 196.503 444.934 199.943 447.056 202.064 454.116 195.003 447.056 187.943 444.934 190.064 448.374 193.503 429.616 193.503 433.056 190.064 430.934 187.943Z" fill="#F06A1D"/></g></svg>