<svg width="96" height="96" xmlns="http://www.w3.org/2000/svg" xmlns:xlink="http://www.w3.org/1999/xlink" overflow="hidden"><defs><clipPath id="clip0"><rect x="213" y="39" width="96" height="96"/></clipPath></defs><g clip-path="url(#clip0)" transform="translate(-213 -39)"><path d="M261 83C256 83 252 79 252 74 252 69 256 65 261 65 266 65 270 69 270 74 270 79 266 83 261 83ZM261 53C254.1 53 247.6 56.4 243.7 62.2 239.8 67.9 239 75.2 241.5 81.7L251 102.7 259.2 119.9C259.5 120.6 260.2 121 261 121 261.8 121 262.5 120.6 262.8 119.9L271 102.7 280.5 81.7C283 75.2 282.2 67.9 278.3 62.2 274.4 56.4 267.9 53 261 53Z" fill="#F06A1D"/></g></svg>