<svg width="96" height="96" xmlns="http://www.w3.org/2000/svg" xmlns:xlink="http://www.w3.org/1999/xlink" overflow="hidden"><defs><clipPath id="clip0"><rect x="213" y="174" width="96" height="96"/></clipPath></defs><g clip-path="url(#clip0)" transform="translate(-213 -174)"><path d="M302.081 200.589C298.743 199.068 295.049 200.208 291.041 203.931 287.102 201.762 275.291 196 261.005 196 246.808 196 235.057 201.69 231.045 203.889 227.054 200.2 223.375 199.075 220.051 200.589 218.318 201.36 217.003 202.841 216.443 204.653 214.987 209.143 217.149 216.373 223.052 226.759 225.051 230.307 227.398 233.647 230.059 236.73L230.097 237.311 231.126 238.138C239.801 244.486 250.256 247.937 261.006 248 271.755 247.937 282.211 244.486 290.886 238.138L291.915 237.311 291.943 236.877C294.658 233.754 297.049 230.364 299.08 226.759 304.982 216.373 307.143 209.142 305.688 204.653 305.128 202.841 303.813 201.36 302.081 200.589ZM226.529 224.782C219.655 212.687 219.643 207.752 220.248 205.886 220.456 205.141 220.994 204.531 221.707 204.229 223.384 203.468 225.587 204.338 228.117 206.624L229.603 229.651C228.527 228.113 227.494 226.479 226.529 224.782ZM286.102 234.198C278.669 239.174 269.95 241.885 261.006 242 252.061 241.885 243.342 239.174 235.909 234.198L234.281 208.969C238.109 206.936 248.674 202 261.005 202 273.338 202 283.905 206.938 287.73 208.969ZM295.601 224.782C294.599 226.547 293.52 228.24 292.397 229.831L293.887 206.737C296.47 204.366 298.719 203.453 300.425 204.229 301.138 204.531 301.675 205.141 301.884 205.886 302.488 207.751 302.477 212.686 295.602 224.782Z" fill="#F06A1D"/><path d="M242.074 213.805C242.361 214.872 243.458 215.504 244.525 215.217 244.525 215.217 244.525 215.217 244.525 215.217 255.315 212.275 266.696 212.275 277.486 215.217 278.552 215.508 279.651 214.88 279.942 213.814 280.232 212.749 279.604 211.649 278.539 211.359 278.534 211.357 278.53 211.356 278.525 211.355 267.055 208.23 254.957 208.23 243.486 211.354 242.42 211.641 241.787 212.738 242.074 213.805Z" fill="#F06A1D"/><path d="M275.005 224C276.109 224 277.005 223.105 277.005 222 277.005 220.895 276.109 220 275.005 220L247.005 220C245.9 220 245.005 220.895 245.005 222 245.005 223.105 245.9 224 247.005 224Z" fill="#F06A1D"/><path d="M277.486 228.783C266.696 231.725 255.315 231.725 244.525 228.783 243.459 228.495 242.361 229.125 242.072 230.191 241.784 231.257 242.414 232.355 243.48 232.644 243.482 232.645 243.484 232.645 243.486 232.646 249.197 234.195 255.087 234.987 261.005 235 266.923 234.987 272.814 234.195 278.525 232.646 279.592 232.36 280.226 231.264 279.941 230.197 279.655 229.13 278.559 228.496 277.492 228.782 277.49 228.782 277.488 228.783 277.486 228.783Z" fill="#F06A1D"/></g></svg>